<svg width="16" height="20" fill="none" xmlns="http://www.w3.org/2000/svg"><path fill-rule="evenodd" clip-rule="evenodd" d="M12.423.234a.858.858 0 0 0-1.179 0 .777.777 0 0 0 0 1.132L13.26 3.3H4a4.14 4.14 0 0 0-2.828 1.098A3.635 3.635 0 0 0 0 7.05v1.5c0 .414.358.75.8.75.442 0 .8-.336.8-.75v-1.5c0-.597.253-1.17.703-1.591A2.484 2.484 0 0 1 4 4.799h9.155l-1.91 1.835a.777.777 0 0 0 0 1.132.858.858 0 0 0 1.178 0l3.333-3.2a.777.777 0 0 0 0-1.132l-3.333-3.2ZM3.577 19.365a.858.858 0 0 0 1.179 0 .778.778 0 0 0 0-1.131L2.74 16.3H12a4.14 4.14 0 0 0 2.828-1.099A3.635 3.635 0 0 0 16 12.55v-1.5c0-.414-.358-.75-.8-.75-.442 0-.8.336-.8.75v1.5c0 .596-.253 1.169-.703 1.59-.45.423-1.06.66-1.697.66H2.845l1.91-1.835a.778.778 0 0 0 0-1.131.858.858 0 0 0-1.178 0l-3.333 3.2a.778.778 0 0 0 0 1.131l3.333 3.2Z" fill="#fff"/></svg>